<svg width="134" height="23" viewBox="0 0 134 23" fill="none" xmlns="http://www.w3.org/2000/svg">
<path fill-rule="evenodd" clip-rule="evenodd" d="M18.4301 2.5625V4.125L20.2572 4.9385V3.376L18.4301 2.5625Z" fill="#212224" stroke="black"/>
<path fill-rule="evenodd" clip-rule="evenodd" d="M18.4301 4.125H19.9925L21.8196 4.9385H20.2572L18.4301 4.125Z" fill="#212224" stroke="black"/>
<path fill-rule="evenodd" clip-rule="evenodd" d="M19.9925 4.125V5.6875L21.8196 6.501V4.9385L19.9925 4.125Z" fill="#212224" stroke="black"/>
<path fill-rule="evenodd" clip-rule="evenodd" d="M19.9925 5.6875H21.5551L23.3822 6.501H21.8196L19.9925 5.6875Z" fill="#212224" stroke="black"/>
<path fill-rule="evenodd" clip-rule="evenodd" d="M21.5551 5.6875V8.8125H19.9925V10.375H18.4301V11.9375H5.93008L7.75718 12.751H20.2572V11.1885H21.8196V9.626H23.3822V6.501L21.5551 5.6875Z" fill="#212224" stroke="black"/>
<path fill-rule="evenodd" clip-rule="evenodd" d="M5.93008 11.9375V10.375L7.75718 11.1885V12.751L5.93008 11.9375Z" fill="#212224" stroke="black"/>
<path fill-rule="evenodd" clip-rule="evenodd" d="M5.93008 10.375H4.36758L6.19468 11.1885H7.75718L5.93008 10.375Z" fill="#212224" stroke="black"/>
<path fill-rule="evenodd" clip-rule="evenodd" d="M4.36758 10.375V8.8125L6.19468 9.626V11.1885L4.36758 10.375Z" fill="#212224" stroke="black"/>
<path fill-rule="evenodd" clip-rule="evenodd" d="M4.36758 8.8125H2.80508L4.63218 9.626H6.19468L4.36758 8.8125Z" fill="#212224" stroke="black"/>
<path fill-rule="evenodd" clip-rule="evenodd" d="M2.80508 8.8125V5.6875H4.36758V4.125H5.93008V2.5625H18.4301L20.2572 3.376H7.75718V4.9385H6.19468V6.501H4.63218V9.626L2.80508 8.8125Z" fill="#212224" stroke="black"/>
<path fill-rule="evenodd" clip-rule="evenodd" d="M5.93008 8.8125H7.49258L9.31968 9.626H7.75718L5.93008 8.8125Z" fill="#212224" stroke="black"/>
<path fill-rule="evenodd" clip-rule="evenodd" d="M7.49258 8.8125V10.375L9.31968 11.1885V9.626L7.49258 8.8125Z" fill="#212224" stroke="black"/>
<path fill-rule="evenodd" clip-rule="evenodd" d="M7.49258 10.375H16.8675V8.8125H18.4301V5.6875L20.2572 6.501V9.626H18.6946V11.1885H9.31968L7.49258 10.375Z" fill="#212224" stroke="black"/>
<path fill-rule="evenodd" clip-rule="evenodd" d="M18.4301 5.6875H16.8675L18.6946 6.501H20.2572L18.4301 5.6875Z" fill="#212224" stroke="black"/>
<path fill-rule="evenodd" clip-rule="evenodd" d="M16.8675 5.6875V4.125L18.6946 4.9385V6.501L16.8675 5.6875Z" fill="#212224" stroke="black"/>
<path fill-rule="evenodd" clip-rule="evenodd" d="M16.8675 4.125H7.49258V5.6875H5.93008V8.8125L7.75718 9.626V6.501H9.31968V4.9385H18.6946L16.8675 4.125Z" fill="#212224" stroke="black"/>
<path fill-rule="evenodd" clip-rule="evenodd" d="M23.1175 13.5V15.0625H18.4301V21.3125H15.3051L17.1322 22.126H20.2572V15.876H24.9446V14.3135L23.1175 13.5Z" fill="#212224" stroke="black"/>
<path fill-rule="evenodd" clip-rule="evenodd" d="M15.3051 21.3125V15.0625L17.1322 15.876V22.126L15.3051 21.3125Z" fill="#212224" stroke="black"/>
<path fill-rule="evenodd" clip-rule="evenodd" d="M15.3051 15.0625H9.05508V21.3125H5.93008L7.75718 22.126H10.8822V15.876H17.1322L15.3051 15.0625Z" fill="#212224" stroke="black"/>
<path fill-rule="evenodd" clip-rule="evenodd" d="M5.93008 21.3125V15.0625L7.75718 15.876V22.126L5.93008 21.3125Z" fill="#212224" stroke="black"/>
<path fill-rule="evenodd" clip-rule="evenodd" d="M5.93008 15.0625H1.24258L3.06968 15.876H7.75718L5.93008 15.0625Z" fill="#212224" stroke="black"/>
<path fill-rule="evenodd" clip-rule="evenodd" d="M1.24258 15.0625V13.5H23.1175L24.9446 14.3135H3.06968V15.876L1.24258 15.0625Z" fill="#212224" stroke="black"/>
<path fill-rule="evenodd" clip-rule="evenodd" d="M34.0551 1V2.5625L35.8822 3.376V1.8135L34.0551 1Z" fill="#212224" stroke="black"/>
<path fill-rule="evenodd" clip-rule="evenodd" d="M34.0551 2.5625H38.7425L40.5696 3.376H35.8822L34.0551 2.5625Z" fill="#212224" stroke="black"/>
<path fill-rule="evenodd" clip-rule="evenodd" d="M38.7425 2.5625V4.125H35.6175V5.6875L37.4446 6.501V4.9385H40.5696V3.376L38.7425 2.5625Z" fill="#212224" stroke="black"/>
<path fill-rule="evenodd" clip-rule="evenodd" d="M35.6175 5.6875H38.7425L40.5696 6.501H37.4446L35.6175 5.6875Z" fill="#212224" stroke="black"/>
<path fill-rule="evenodd" clip-rule="evenodd" d="M38.7425 5.6875V10.375H35.6175V11.9375H29.3675L31.1946 12.751H37.4446V11.1885H40.5696V6.501L38.7425 5.6875Z" fill="#212224" stroke="black"/>
<path fill-rule="evenodd" clip-rule="evenodd" d="M29.3675 11.9375V10.375L31.1946 11.1885V12.751L29.3675 11.9375Z" fill="#212224" stroke="black"/>
<path fill-rule="evenodd" clip-rule="evenodd" d="M29.3675 10.375H26.2425L28.0696 11.1885H31.1946L29.3675 10.375Z" fill="#212224" stroke="black"/>
<path fill-rule="evenodd" clip-rule="evenodd" d="M26.2425 10.375V5.6875H29.3675V4.125L31.1946 4.9385V6.501H28.0696V11.1885L26.2425 10.375Z" fill="#212224" stroke="black"/>
<path fill-rule="evenodd" clip-rule="evenodd" d="M29.3675 4.125H26.2425L28.0696 4.9385H31.1946L29.3675 4.125Z" fill="#212224" stroke="black"/>
<path fill-rule="evenodd" clip-rule="evenodd" d="M26.2425 4.125V2.5625H30.9301V1H34.0551L35.8822 1.8135H32.7572V3.376H28.0696V4.9385L26.2425 4.125Z" fill="#212224" stroke="black"/>
<path fill-rule="evenodd" clip-rule="evenodd" d="M29.3675 8.8125H30.9301L32.7572 9.626H31.1946L29.3675 8.8125Z" fill="#212224" stroke="black"/>
<path fill-rule="evenodd" clip-rule="evenodd" d="M30.9301 8.8125V10.375L32.7572 11.1885V9.626L30.9301 8.8125Z" fill="#212224" stroke="black"/>
<path fill-rule="evenodd" clip-rule="evenodd" d="M30.9301 10.375H34.0551V8.8125H35.6175V7.25L37.4446 8.0635V9.626H35.8822V11.1885H32.7572L30.9301 10.375Z" fill="#212224" stroke="black"/>
<path fill-rule="evenodd" clip-rule="evenodd" d="M35.6175 7.25H34.0551L35.8822 8.0635H37.4446L35.6175 7.25Z" fill="#212224" stroke="black"/>
<path fill-rule="evenodd" clip-rule="evenodd" d="M34.0551 7.25V5.6875L35.8822 6.501V8.0635L34.0551 7.25Z" fill="#212224" stroke="black"/>
<path fill-rule="evenodd" clip-rule="evenodd" d="M34.0551 5.6875H30.9301V7.25H29.3675V8.8125L31.1946 9.626V8.0635H32.7572V6.501H35.8822L34.0551 5.6875Z" fill="#212224" stroke="black"/>
<path fill-rule="evenodd" clip-rule="evenodd" d="M46.5551 1V11.9375H43.4301L45.2572 12.751H48.3822V1.8135L46.5551 1Z" fill="#212224" stroke="black"/>
<path fill-rule="evenodd" clip-rule="evenodd" d="M43.4301 11.9375V8.8125L45.2572 9.626V12.751L43.4301 11.9375Z" fill="#212224" stroke="black"/>
<path fill-rule="evenodd" clip-rule="evenodd" d="M43.4301 8.8125H38.7425L40.5696 9.626H45.2572L43.4301 8.8125Z" fill="#212224" stroke="black"/>
<path fill-rule="evenodd" clip-rule="evenodd" d="M38.7425 8.8125V7.25H43.4301V5.6875L45.2572 6.501V8.0635H40.5696V9.626L38.7425 8.8125Z" fill="#212224" stroke="black"/>
<path fill-rule="evenodd" clip-rule="evenodd" d="M43.4301 5.6875H38.7425L40.5696 6.501H45.2572L43.4301 5.6875Z" fill="#212224" stroke="black"/>
<path fill-rule="evenodd" clip-rule="evenodd" d="M38.7425 5.6875V4.125H43.4301V1H46.5551L48.3822 1.8135H45.2572V4.9385H40.5696V6.501L38.7425 5.6875Z" fill="#212224" stroke="black"/>
<path fill-rule="evenodd" clip-rule="evenodd" d="M43.4301 13.5V15.0625L45.2572 15.876V14.3135L43.4301 13.5Z" fill="#212224" stroke="black"/>
<path fill-rule="evenodd" clip-rule="evenodd" d="M43.4301 15.0625H46.5551L48.3822 15.876H45.2572L43.4301 15.0625Z" fill="#212224" stroke="black"/>
<path fill-rule="evenodd" clip-rule="evenodd" d="M46.5551 15.0625V19.75H43.4301V21.3125H30.9301L32.7572 22.126H45.2572V20.5635H48.3822V15.876L46.5551 15.0625Z" fill="#212224" stroke="black"/>
<path fill-rule="evenodd" clip-rule="evenodd" d="M30.9301 21.3125V19.75L32.7572 20.5635V22.126L30.9301 21.3125Z" fill="#212224" stroke="black"/>
<path fill-rule="evenodd" clip-rule="evenodd" d="M30.9301 19.75H27.8051L29.6322 20.5635H32.7572L30.9301 19.75Z" fill="#212224" stroke="black"/>
<path fill-rule="evenodd" clip-rule="evenodd" d="M27.8051 19.75V15.0625H30.9301V13.5H43.4301L45.2572 14.3135H32.7572V15.876H29.6322V20.5635L27.8051 19.75Z" fill="#212224" stroke="black"/>
<path fill-rule="evenodd" clip-rule="evenodd" d="M30.9301 18.1875H32.4925L34.3196 19.001H32.7572L30.9301 18.1875Z" fill="#212224" stroke="black"/>
<path fill-rule="evenodd" clip-rule="evenodd" d="M32.4925 18.1875V19.75L34.3196 20.5635V19.001L32.4925 18.1875Z" fill="#212224" stroke="black"/>
<path fill-rule="evenodd" clip-rule="evenodd" d="M32.4925 19.75H41.8675V18.1875H43.4301V16.625L45.2572 17.4385V19.001H43.6946V20.5635H34.3196L32.4925 19.75Z" fill="#212224" stroke="black"/>
<path fill-rule="evenodd" clip-rule="evenodd" d="M43.4301 16.625H41.8675L43.6946 17.4385H45.2572L43.4301 16.625Z" fill="#212224" stroke="black"/>
<path fill-rule="evenodd" clip-rule="evenodd" d="M41.8675 16.625V15.0625L43.6946 15.876V17.4385L41.8675 16.625Z" fill="#212224" stroke="black"/>
<path fill-rule="evenodd" clip-rule="evenodd" d="M41.8675 15.0625H32.4925V16.625H30.9301V18.1875L32.7572 19.001V17.4385H34.3196V15.876H43.6946L41.8675 15.0625Z" fill="#212224" stroke="black"/>
<path fill-rule="evenodd" clip-rule="evenodd" d="M69.9925 2.5625V4.125H62.1801V8.8125L64.0072 9.626V4.9385H71.8196V3.376L69.9925 2.5625Z" fill="#212224" stroke="black"/>
<path fill-rule="evenodd" clip-rule="evenodd" d="M62.1801 8.8125H69.9925L71.8196 9.626H64.0072L62.1801 8.8125Z" fill="#212224" stroke="black"/>
<path fill-rule="evenodd" clip-rule="evenodd" d="M69.9925 8.8125V10.375H62.1801V18.1875L64.0072 19.001V11.1885H71.8196V9.626L69.9925 8.8125Z" fill="#212224" stroke="black"/>
<path fill-rule="evenodd" clip-rule="evenodd" d="M62.1801 18.1875H66.8675V16.625H69.9925L71.8196 17.4385H68.6946V19.001H64.0072L62.1801 18.1875Z" fill="#212224" stroke="black"/>
<path fill-rule="evenodd" clip-rule="evenodd" d="M69.9925 16.625V18.1875H68.4301V19.75H60.6175L62.4446 20.5635H70.2572V19.001H71.8196V17.4385L69.9925 16.625Z" fill="#212224" stroke="black"/>
<path fill-rule="evenodd" clip-rule="evenodd" d="M60.6175 19.75V18.1875L62.4446 19.001V20.5635L60.6175 19.75Z" fill="#212224" stroke="black"/>
<path fill-rule="evenodd" clip-rule="evenodd" d="M60.6175 18.1875H59.0551L60.8822 19.001H62.4446L60.6175 18.1875Z" fill="#212224" stroke="black"/>
<path fill-rule="evenodd" clip-rule="evenodd" d="M59.0551 18.1875V2.5625H69.9925L71.8196 3.376H60.8822V19.001L59.0551 18.1875Z" fill="#212224" stroke="black"/>
<path fill-rule="evenodd" clip-rule="evenodd" d="M76.2425 1V21.3125H73.1175L74.9446 22.126H78.0696V1.8135L76.2425 1Z" fill="#212224" stroke="black"/>
<path fill-rule="evenodd" clip-rule="evenodd" d="M73.1175 21.3125V11.9375L74.9446 12.751V22.126L73.1175 21.3125Z" fill="#212224" stroke="black"/>
<path fill-rule="evenodd" clip-rule="evenodd" d="M73.1175 11.9375H69.9925L71.8196 12.751H74.9446L73.1175 11.9375Z" fill="#212224" stroke="black"/>
<path fill-rule="evenodd" clip-rule="evenodd" d="M69.9925 11.9375V10.375H73.1175V1H76.2425L78.0696 1.8135H74.9446V11.1885H71.8196V12.751L69.9925 11.9375Z" fill="#212224" stroke="black"/>
<path fill-rule="evenodd" clip-rule="evenodd" d="M80.9301 1V21.3125H77.8051L79.6322 22.126H82.7572V1.8135L80.9301 1Z" fill="#212224" stroke="black"/>
<path fill-rule="evenodd" clip-rule="evenodd" d="M77.8051 21.3125V1H80.9301L82.7572 1.8135H79.6322V22.126L77.8051 21.3125Z" fill="#212224" stroke="black"/>
<path fill-rule="evenodd" clip-rule="evenodd" d="M96.5551 2.5625V7.25L98.3822 8.0635V3.376L96.5551 2.5625Z" fill="#212224" stroke="black"/>
<path fill-rule="evenodd" clip-rule="evenodd" d="M96.5551 7.25H98.1175L99.9446 8.0635H98.3822L96.5551 7.25Z" fill="#212224" stroke="black"/>
<path fill-rule="evenodd" clip-rule="evenodd" d="M98.1175 7.25V8.8125L99.9446 9.626V8.0635L98.1175 7.25Z" fill="#212224" stroke="black"/>
<path fill-rule="evenodd" clip-rule="evenodd" d="M98.1175 8.8125H99.6803L101.507 9.626H99.9446L98.1175 8.8125Z" fill="#212224" stroke="black"/>
<path fill-rule="evenodd" clip-rule="evenodd" d="M99.6803 8.8125V10.375L101.507 11.1885V9.626L99.6803 8.8125Z" fill="#212224" stroke="black"/>
<path fill-rule="evenodd" clip-rule="evenodd" d="M99.6803 10.375H104.367L106.194 11.1885H101.507L99.6803 10.375Z" fill="#212224" stroke="black"/>
<path fill-rule="evenodd" clip-rule="evenodd" d="M104.367 10.375V11.9375H98.1175L99.9446 12.751H106.194V11.1885L104.367 10.375Z" fill="#212224" stroke="black"/>
<path fill-rule="evenodd" clip-rule="evenodd" d="M98.1175 11.9375V10.375L99.9446 11.1885V12.751L98.1175 11.9375Z" fill="#212224" stroke="black"/>
<path fill-rule="evenodd" clip-rule="evenodd" d="M98.1175 10.375H96.5551L98.3822 11.1885H99.9446L98.1175 10.375Z" fill="#212224" stroke="black"/>
<path fill-rule="evenodd" clip-rule="evenodd" d="M96.5551 10.375V8.8125L98.3822 9.626V11.1885L96.5551 10.375Z" fill="#212224" stroke="black"/>
<path fill-rule="evenodd" clip-rule="evenodd" d="M96.5551 8.8125H93.4301V10.375H91.8675V11.9375H85.6175L87.4446 12.751H93.6946V11.1885H95.2572V9.626H98.3822L96.5551 8.8125Z" fill="#212224" stroke="black"/>
<path fill-rule="evenodd" clip-rule="evenodd" d="M85.6175 11.9375V10.375H90.3051V8.8125H91.8675V7.25H93.4301V2.5625H96.5551L98.3822 3.376H95.2572V8.0635H93.6946V9.626H92.1322V11.1885H87.4446V12.751L85.6175 11.9375Z" fill="#212224" stroke="black"/>
<path fill-rule="evenodd" clip-rule="evenodd" d="M105.93 18.1875V19.75H84.0551L85.8822 20.5635H107.757V19.001L105.93 18.1875Z" fill="#212224" stroke="black"/>
<path fill-rule="evenodd" clip-rule="evenodd" d="M84.0551 19.75V18.1875H105.93L107.757 19.001H85.8822V20.5635L84.0551 19.75Z" fill="#212224" stroke="black"/>
<path fill-rule="evenodd" clip-rule="evenodd" d="M129.367 2.5625V4.125H113.742V7.25L115.569 8.0635V4.9385H131.194V3.376L129.367 2.5625Z" fill="#212224" stroke="black"/>
<path fill-rule="evenodd" clip-rule="evenodd" d="M113.742 7.25H127.805L129.632 8.0635H115.569L113.742 7.25Z" fill="#212224" stroke="black"/>
<path fill-rule="evenodd" clip-rule="evenodd" d="M127.805 7.25V8.8125H113.742V11.9375L115.569 12.751V9.626H129.632V8.0635L127.805 7.25Z" fill="#212224" stroke="black"/>
<path fill-rule="evenodd" clip-rule="evenodd" d="M113.742 11.9375H129.367L131.194 12.751H115.569L113.742 11.9375Z" fill="#212224" stroke="black"/>
<path fill-rule="evenodd" clip-rule="evenodd" d="M129.367 11.9375V13.5H112.18L114.007 14.3135H131.194V12.751L129.367 11.9375Z" fill="#212224" stroke="black"/>
<path fill-rule="evenodd" clip-rule="evenodd" d="M112.18 13.5V11.9375L114.007 12.751V14.3135L112.18 13.5Z" fill="#212224" stroke="black"/>
<path fill-rule="evenodd" clip-rule="evenodd" d="M112.18 11.9375H110.617L112.444 12.751H114.007L112.18 11.9375Z" fill="#212224" stroke="black"/>
<path fill-rule="evenodd" clip-rule="evenodd" d="M110.617 11.9375V2.5625H129.367L131.194 3.376H112.444V12.751L110.617 11.9375Z" fill="#212224" stroke="black"/>
<path fill-rule="evenodd" clip-rule="evenodd" d="M130.93 18.1875V19.75H109.055L110.882 20.5635H132.757V19.001L130.93 18.1875Z" fill="#212224" stroke="black"/>
<path fill-rule="evenodd" clip-rule="evenodd" d="M109.055 19.75V18.1875H130.93L132.757 19.001H110.882V20.5635L109.055 19.75Z" fill="#212224" stroke="black"/>
<mask id="path-95-outside-1_8_18464" maskUnits="userSpaceOnUse" x="0.242584" y="0" width="132" height="23" fill="black">
<rect fill="white" x="0.242584" width="132" height="23"/>
<path d="M2.80508 5.6875H4.36758V4.125H5.93008V2.5625H18.4301V4.125H19.9925V5.6875H21.5551V8.8125H19.9925V10.375H18.4301V11.9375H5.93008V10.375H4.36758V8.8125H2.80508V5.6875ZM5.93008 5.6875V8.8125H7.49258V10.375H16.8675V8.8125H18.4301V5.6875H16.8675V4.125H7.49258V5.6875H5.93008ZM1.24258 13.5H23.1175V15.0625H18.4301V21.3125H15.3051V15.0625H9.05508V21.3125H5.93008V15.0625H1.24258V13.5ZM26.2425 2.5625H30.9301V1H34.0551V2.5625H38.7425V4.125H35.6175V5.6875H38.7425V10.375H35.6175V11.9375H29.3675V10.375H26.2425V5.6875H29.3675V4.125H26.2425V2.5625ZM29.3675 7.25V8.8125H30.9301V10.375H34.0551V8.8125H35.6175V7.25H34.0551V5.6875H30.9301V7.25H29.3675ZM38.7425 4.125H43.4301V1H46.5551V11.9375H43.4301V8.8125H38.7425V7.25H43.4301V5.6875H38.7425V4.125ZM27.8051 15.0625H30.9301V13.5H43.4301V15.0625H46.5551V19.75H43.4301V21.3125H30.9301V19.75H27.8051V15.0625ZM30.9301 16.625V18.1875H32.4925V19.75H41.8675V18.1875H43.4301V16.625H41.8675V15.0625H32.4925V16.625H30.9301ZM59.0551 2.5625H69.9925V4.125H62.1801V8.8125H69.9925V10.375H62.1801V18.1875H66.8675V16.625H69.9925V18.1875H68.4301V19.75H60.6175V18.1875H59.0551V2.5625ZM69.9925 10.375H73.1175V1H76.2425V21.3125H73.1175V11.9375H69.9925V10.375ZM77.8051 1H80.9301V21.3125H77.8051V1ZM85.6175 10.375H90.3051V8.8125H91.8675V7.25H93.4301V2.5625H96.5551V7.25H98.1175V8.8125H99.6803V10.375H104.367V11.9375H98.1175V10.375H96.5551V8.8125H93.4301V10.375H91.8675V11.9375H85.6175V10.375ZM84.0551 18.1875H105.93V19.75H84.0551V18.1875ZM110.617 2.5625H129.367V4.125H113.742V7.25H127.805V8.8125H113.742V11.9375H129.367V13.5H112.18V11.9375H110.617V2.5625ZM109.055 18.1875H130.93V19.75H109.055V18.1875Z"/>
</mask>
<path d="M2.80508 5.6875H4.36758V4.125H5.93008V2.5625H18.4301V4.125H19.9925V5.6875H21.5551V8.8125H19.9925V10.375H18.4301V11.9375H5.93008V10.375H4.36758V8.8125H2.80508V5.6875ZM5.93008 5.6875V8.8125H7.49258V10.375H16.8675V8.8125H18.4301V5.6875H16.8675V4.125H7.49258V5.6875H5.93008ZM1.24258 13.5H23.1175V15.0625H18.4301V21.3125H15.3051V15.0625H9.05508V21.3125H5.93008V15.0625H1.24258V13.5ZM26.2425 2.5625H30.9301V1H34.0551V2.5625H38.7425V4.125H35.6175V5.6875H38.7425V10.375H35.6175V11.9375H29.3675V10.375H26.2425V5.6875H29.3675V4.125H26.2425V2.5625ZM29.3675 7.25V8.8125H30.9301V10.375H34.0551V8.8125H35.6175V7.25H34.0551V5.6875H30.9301V7.25H29.3675ZM38.7425 4.125H43.4301V1H46.5551V11.9375H43.4301V8.8125H38.7425V7.25H43.4301V5.6875H38.7425V4.125ZM27.8051 15.0625H30.9301V13.5H43.4301V15.0625H46.5551V19.75H43.4301V21.3125H30.9301V19.75H27.8051V15.0625ZM30.9301 16.625V18.1875H32.4925V19.75H41.8675V18.1875H43.4301V16.625H41.8675V15.0625H32.4925V16.625H30.9301ZM59.0551 2.5625H69.9925V4.125H62.1801V8.8125H69.9925V10.375H62.1801V18.1875H66.8675V16.625H69.9925V18.1875H68.4301V19.75H60.6175V18.1875H59.0551V2.5625ZM69.9925 10.375H73.1175V1H76.2425V21.3125H73.1175V11.9375H69.9925V10.375ZM77.8051 1H80.9301V21.3125H77.8051V1ZM85.6175 10.375H90.3051V8.8125H91.8675V7.25H93.4301V2.5625H96.5551V7.25H98.1175V8.8125H99.6803V10.375H104.367V11.9375H98.1175V10.375H96.5551V8.8125H93.4301V10.375H91.8675V11.9375H85.6175V10.375ZM84.0551 18.1875H105.93V19.75H84.0551V18.1875ZM110.617 2.5625H129.367V4.125H113.742V7.25H127.805V8.8125H113.742V11.9375H129.367V13.5H112.18V11.9375H110.617V2.5625ZM109.055 18.1875H130.93V19.75H109.055V18.1875Z" fill="#F9F9F9"/>
<path d="M2.80508 5.6875V4.6875H1.80508V5.6875H2.80508ZM4.36758 5.6875V6.6875H5.36758V5.6875H4.36758ZM4.36758 4.125V3.125H3.36758V4.125H4.36758ZM5.93008 4.125V5.125H6.93008V4.125H5.93008ZM5.93008 2.5625V1.5625H4.93008V2.5625H5.93008ZM18.4301 2.5625H19.4301V1.5625H18.4301V2.5625ZM18.4301 4.125H17.4301V5.125H18.4301V4.125ZM19.9925 4.125H20.9925V3.125H19.9925V4.125ZM19.9925 5.6875H18.9925V6.6875H19.9925V5.6875ZM21.5551 5.6875H22.5551V4.6875H21.5551V5.6875ZM21.5551 8.8125V9.8125H22.5551V8.8125H21.5551ZM19.9925 8.8125V7.8125H18.9925V8.8125H19.9925ZM19.9925 10.375V11.375H20.9925V10.375H19.9925ZM18.4301 10.375V9.375H17.4301V10.375H18.4301ZM18.4301 11.9375V12.9375H19.4301V11.9375H18.4301ZM5.93008 11.9375H4.93008V12.9375H5.93008V11.9375ZM5.93008 10.375H6.93008V9.375H5.93008V10.375ZM4.36758 10.375H3.36758V11.375H4.36758V10.375ZM4.36758 8.8125H5.36758V7.8125H4.36758V8.8125ZM2.80508 8.8125H1.80508V9.8125H2.80508V8.8125ZM5.93008 5.6875V4.6875H4.93008V5.6875H5.93008ZM5.93008 8.8125H4.93008V9.8125H5.93008V8.8125ZM7.49258 8.8125H8.49258V7.8125H7.49258V8.8125ZM7.49258 10.375H6.49258V11.375H7.49258V10.375ZM16.8675 10.375V11.375H17.8675V10.375H16.8675ZM16.8675 8.8125V7.8125H15.8675V8.8125H16.8675ZM18.4301 8.8125V9.8125H19.4301V8.8125H18.4301ZM18.4301 5.6875H19.4301V4.6875H18.4301V5.6875ZM16.8675 5.6875H15.8675V6.6875H16.8675V5.6875ZM16.8675 4.125H17.8675V3.125H16.8675V4.125ZM7.49258 4.125V3.125H6.49258V4.125H7.49258ZM7.49258 5.6875V6.6875H8.49258V5.6875H7.49258ZM1.24258 13.5V12.5H0.242584V13.5H1.24258ZM23.1175 13.5H24.1175V12.5H23.1175V13.5ZM23.1175 15.0625V16.0625H24.1175V15.0625H23.1175ZM18.4301 15.0625V14.0625H17.4301V15.0625H18.4301ZM18.4301 21.3125V22.3125H19.4301V21.3125H18.4301ZM15.3051 21.3125H14.3051V22.3125H15.3051V21.3125ZM15.3051 15.0625H16.3051V14.0625H15.3051V15.0625ZM9.05508 15.0625V14.0625H8.05508V15.0625H9.05508ZM9.05508 21.3125V22.3125H10.0551V21.3125H9.05508ZM5.93008 21.3125H4.93008V22.3125H5.93008V21.3125ZM5.93008 15.0625H6.93008V14.0625H5.93008V15.0625ZM1.24258 15.0625H0.242584V16.0625H1.24258V15.0625ZM26.2425 2.5625V1.5625H25.2425V2.5625H26.2425ZM30.9301 2.5625V3.5625H31.9301V2.5625H30.9301ZM30.9301 1V0H29.9301V1H30.9301ZM34.0551 1H35.0551V0H34.0551V1ZM34.0551 2.5625H33.0551V3.5625H34.0551V2.5625ZM38.7425 2.5625H39.7425V1.5625H38.7425V2.5625ZM35.6175 4.125V3.125H34.6175V4.125H35.6175ZM35.6175 5.6875H34.6175V6.6875H35.6175V5.6875ZM38.7425 10.375V11.375H39.7425V10.375H38.7425ZM35.6175 10.375V9.375H34.6175V10.375H35.6175ZM35.6175 11.9375V12.9375H36.6175V11.9375H35.6175ZM29.3675 11.9375H28.3675V12.9375H29.3675V11.9375ZM29.3675 10.375H30.3675V9.375H29.3675V10.375ZM26.2425 10.375H25.2425V11.375H26.2425V10.375ZM26.2425 5.6875V4.6875H25.2425V5.6875H26.2425ZM29.3675 5.6875V6.6875H30.3675V5.6875H29.3675ZM29.3675 4.125H30.3675V3.125H29.3675V4.125ZM26.2425 4.125H25.2425V5.125H26.2425V4.125ZM29.3675 7.25V6.25H28.3675V7.25H29.3675ZM29.3675 8.8125H28.3675V9.8125H29.3675V8.8125ZM30.9301 8.8125H31.9301V7.8125H30.9301V8.8125ZM30.9301 10.375H29.9301V11.375H30.9301V10.375ZM34.0551 10.375V11.375H35.0551V10.375H34.0551ZM34.0551 8.8125V7.8125H33.0551V8.8125H34.0551ZM35.6175 8.8125V9.8125H36.6175V8.8125H35.6175ZM35.6175 7.25H36.6175V6.25H35.6175V7.25ZM34.0551 7.25H33.0551V8.25H34.0551V7.25ZM34.0551 5.6875H35.0551V4.6875H34.0551V5.6875ZM30.9301 5.6875V4.6875H29.9301V5.6875H30.9301ZM30.9301 7.25V8.25H31.9301V7.25H30.9301ZM43.4301 4.125V5.125H44.4301V4.125H43.4301ZM43.4301 1V0H42.4301V1H43.4301ZM46.5551 1H47.5551V0H46.5551V1ZM46.5551 11.9375V12.9375H47.5551V11.9375H46.5551ZM43.4301 11.9375H42.4301V12.9375H43.4301V11.9375ZM43.4301 8.8125H44.4301V7.8125H43.4301V8.8125ZM38.7425 8.8125H37.7425V9.8125H38.7425V8.8125ZM38.7425 7.25V6.25H37.7425V7.25H38.7425ZM43.4301 7.25V8.25H44.4301V7.25H43.4301ZM43.4301 5.6875H44.4301V4.6875H43.4301V5.6875ZM27.8051 15.0625V14.0625H26.8051V15.0625H27.8051ZM30.9301 15.0625V16.0625H31.9301V15.0625H30.9301ZM30.9301 13.5V12.5H29.9301V13.5H30.9301ZM43.4301 13.5H44.4301V12.5H43.4301V13.5ZM43.4301 15.0625H42.4301V16.0625H43.4301V15.0625ZM46.5551 15.0625H47.5551V14.0625H46.5551V15.0625ZM46.5551 19.75V20.75H47.5551V19.75H46.5551ZM43.4301 19.75V18.75H42.4301V19.75H43.4301ZM43.4301 21.3125V22.3125H44.4301V21.3125H43.4301ZM30.9301 21.3125H29.9301V22.3125H30.9301V21.3125ZM30.9301 19.75H31.9301V18.75H30.9301V19.75ZM27.8051 19.75H26.8051V20.75H27.8051V19.75ZM30.9301 16.625V15.625H29.9301V16.625H30.9301ZM30.9301 18.1875H29.9301V19.1875H30.9301V18.1875ZM32.4925 18.1875H33.4925V17.1875H32.4925V18.1875ZM32.4925 19.75H31.4925V20.75H32.4925V19.75ZM41.8675 19.75V20.75H42.8675V19.75H41.8675ZM41.8675 18.1875V17.1875H40.8675V18.1875H41.8675ZM43.4301 18.1875V19.1875H44.4301V18.1875H43.4301ZM43.4301 16.625H44.4301V15.625H43.4301V16.625ZM41.8675 16.625H40.8675V17.625H41.8675V16.625ZM41.8675 15.0625H42.8675V14.0625H41.8675V15.0625ZM32.4925 15.0625V14.0625H31.4925V15.0625H32.4925ZM32.4925 16.625V17.625H33.4925V16.625H32.4925ZM59.0551 2.5625V1.5625H58.0551V2.5625H59.0551ZM69.9925 2.5625H70.9925V1.5625H69.9925V2.5625ZM69.9925 4.125V5.125H70.9925V4.125H69.9925ZM62.1801 4.125V3.125H61.1801V4.125H62.1801ZM62.1801 8.8125H61.1801V9.8125H62.1801V8.8125ZM69.9925 8.8125H70.9925V7.8125H69.9925V8.8125ZM62.1801 10.375V9.375H61.1801V10.375H62.1801ZM62.1801 18.1875H61.1801V19.1875H62.1801V18.1875ZM66.8675 18.1875V19.1875H67.8675V18.1875H66.8675ZM66.8675 16.625V15.625H65.8675V16.625H66.8675ZM69.9925 16.625H70.9925V15.625H69.9925V16.625ZM69.9925 18.1875V19.1875H70.9925V18.1875H69.9925ZM68.4301 18.1875V17.1875H67.4301V18.1875H68.4301ZM68.4301 19.75V20.75H69.4301V19.75H68.4301ZM60.6175 19.75H59.6175V20.75H60.6175V19.75ZM60.6175 18.1875H61.6175V17.1875H60.6175V18.1875ZM59.0551 18.1875H58.0551V19.1875H59.0551V18.1875ZM73.1175 10.375V11.375H74.1175V10.375H73.1175ZM73.1175 1V0H72.1175V1H73.1175ZM76.2425 1H77.2425V0H76.2425V1ZM76.2425 21.3125V22.3125H77.2425V21.3125H76.2425ZM73.1175 21.3125H72.1175V22.3125H73.1175V21.3125ZM73.1175 11.9375H74.1175V10.9375H73.1175V11.9375ZM69.9925 11.9375H68.9925V12.9375H69.9925V11.9375ZM77.8051 1V0H76.8051V1H77.8051ZM80.9301 1H81.9301V0H80.9301V1ZM80.9301 21.3125V22.3125H81.9301V21.3125H80.9301ZM77.8051 21.3125H76.8051V22.3125H77.8051V21.3125ZM85.6175 10.375V9.375H84.6175V10.375H85.6175ZM90.3051 10.375V11.375H91.3051V10.375H90.3051ZM90.3051 8.8125V7.8125H89.3051V8.8125H90.3051ZM91.8675 8.8125V9.8125H92.8675V8.8125H91.8675ZM91.8675 7.25V6.25H90.8675V7.25H91.8675ZM93.4301 7.25V8.25H94.4301V7.25H93.4301ZM93.4301 2.5625V1.5625H92.4301V2.5625H93.4301ZM96.5551 2.5625H97.5551V1.5625H96.5551V2.5625ZM96.5551 7.25H95.5551V8.25H96.5551V7.25ZM98.1175 7.25H99.1175V6.25H98.1175V7.25ZM98.1175 8.8125H97.1175V9.8125H98.1175V8.8125ZM99.6803 8.8125H100.68V7.8125H99.6803V8.8125ZM99.6803 10.375H98.6803V11.375H99.6803V10.375ZM104.367 10.375H105.367V9.375H104.367V10.375ZM104.367 11.9375V12.9375H105.367V11.9375H104.367ZM98.1175 11.9375H97.1175V12.9375H98.1175V11.9375ZM98.1175 10.375H99.1175V9.375H98.1175V10.375ZM96.5551 10.375H95.5551V11.375H96.5551V10.375ZM96.5551 8.8125H97.5551V7.8125H96.5551V8.8125ZM93.4301 8.8125V7.8125H92.4301V8.8125H93.4301ZM93.4301 10.375V11.375H94.4301V10.375H93.4301ZM91.8675 10.375V9.375H90.8675V10.375H91.8675ZM91.8675 11.9375V12.9375H92.8675V11.9375H91.8675ZM85.6175 11.9375H84.6175V12.9375H85.6175V11.9375ZM84.0551 18.1875V17.1875H83.0551V18.1875H84.0551ZM105.93 18.1875H106.93V17.1875H105.93V18.1875ZM105.93 19.75V20.75H106.93V19.75H105.93ZM84.0551 19.75H83.0551V20.75H84.0551V19.75ZM110.617 2.5625V1.5625H109.617V2.5625H110.617ZM129.367 2.5625H130.367V1.5625H129.367V2.5625ZM129.367 4.125V5.125H130.367V4.125H129.367ZM113.742 4.125V3.125H112.742V4.125H113.742ZM113.742 7.25H112.742V8.25H113.742V7.25ZM127.805 7.25H128.805V6.25H127.805V7.25ZM127.805 8.8125V9.8125H128.805V8.8125H127.805ZM113.742 8.8125V7.8125H112.742V8.8125H113.742ZM113.742 11.9375H112.742V12.9375H113.742V11.9375ZM129.367 11.9375H130.367V10.9375H129.367V11.9375ZM129.367 13.5V14.5H130.367V13.5H129.367ZM112.18 13.5H111.18V14.5H112.18V13.5ZM112.18 11.9375H113.18V10.9375H112.18V11.9375ZM110.617 11.9375H109.617V12.9375H110.617V11.9375ZM109.055 18.1875V17.1875H108.055V18.1875H109.055ZM130.93 18.1875H131.93V17.1875H130.93V18.1875ZM130.93 19.75V20.75H131.93V19.75H130.93ZM109.055 19.75H108.055V20.75H109.055V19.75ZM2.80508 6.6875H4.36758V4.6875H2.80508V6.6875ZM5.36758 5.6875V4.125H3.36758V5.6875H5.36758ZM4.36758 5.125H5.93008V3.125H4.36758V5.125ZM6.93008 4.125V2.5625H4.93008V4.125H6.93008ZM5.93008 3.5625H18.4301V1.5625H5.93008V3.5625ZM17.4301 2.5625V4.125H19.4301V2.5625H17.4301ZM18.4301 5.125H19.9925V3.125H18.4301V5.125ZM18.9925 4.125V5.6875H20.9925V4.125H18.9925ZM19.9925 6.6875H21.5551V4.6875H19.9925V6.6875ZM20.5551 5.6875V8.8125H22.5551V5.6875H20.5551ZM21.5551 7.8125H19.9925V9.8125H21.5551V7.8125ZM18.9925 8.8125V10.375H20.9925V8.8125H18.9925ZM19.9925 9.375H18.4301V11.375H19.9925V9.375ZM17.4301 10.375V11.9375H19.4301V10.375H17.4301ZM18.4301 10.9375H5.93008V12.9375H18.4301V10.9375ZM6.93008 11.9375V10.375H4.93008V11.9375H6.93008ZM5.93008 9.375H4.36758V11.375H5.93008V9.375ZM5.36758 10.375V8.8125H3.36758V10.375H5.36758ZM4.36758 7.8125H2.80508V9.8125H4.36758V7.8125ZM3.80508 8.8125V5.6875H1.80508V8.8125H3.80508ZM4.93008 5.6875V8.8125H6.93008V5.6875H4.93008ZM5.93008 9.8125H7.49258V7.8125H5.93008V9.8125ZM6.49258 8.8125V10.375H8.49258V8.8125H6.49258ZM7.49258 11.375H16.8675V9.375H7.49258V11.375ZM17.8675 10.375V8.8125H15.8675V10.375H17.8675ZM16.8675 9.8125H18.4301V7.8125H16.8675V9.8125ZM19.4301 8.8125V5.6875H17.4301V8.8125H19.4301ZM18.4301 4.6875H16.8675V6.6875H18.4301V4.6875ZM17.8675 5.6875V4.125H15.8675V5.6875H17.8675ZM16.8675 3.125H7.49258V5.125H16.8675V3.125ZM6.49258 4.125V5.6875H8.49258V4.125H6.49258ZM7.49258 4.6875H5.93008V6.6875H7.49258V4.6875ZM1.24258 14.5H23.1175V12.5H1.24258V14.5ZM22.1175 13.5V15.0625H24.1175V13.5H22.1175ZM23.1175 14.0625H18.4301V16.0625H23.1175V14.0625ZM17.4301 15.0625V21.3125H19.4301V15.0625H17.4301ZM18.4301 20.3125H15.3051V22.3125H18.4301V20.3125ZM16.3051 21.3125V15.0625H14.3051V21.3125H16.3051ZM15.3051 14.0625H9.05508V16.0625H15.3051V14.0625ZM8.05508 15.0625V21.3125H10.0551V15.0625H8.05508ZM9.05508 20.3125H5.93008V22.3125H9.05508V20.3125ZM6.93008 21.3125V15.0625H4.93008V21.3125H6.93008ZM5.93008 14.0625H1.24258V16.0625H5.93008V14.0625ZM2.24258 15.0625V13.5H0.242584V15.0625H2.24258ZM26.2425 3.5625H30.9301V1.5625H26.2425V3.5625ZM31.9301 2.5625V1H29.9301V2.5625H31.9301ZM30.9301 2H34.0551V0H30.9301V2ZM33.0551 1V2.5625H35.0551V1H33.0551ZM34.0551 3.5625H38.7425V1.5625H34.0551V3.5625ZM37.7425 2.5625V4.125H39.7425V2.5625H37.7425ZM38.7425 3.125H35.6175V5.125H38.7425V3.125ZM34.6175 4.125V5.6875H36.6175V4.125H34.6175ZM35.6175 6.6875H38.7425V4.6875H35.6175V6.6875ZM37.7425 5.6875V10.375H39.7425V5.6875H37.7425ZM38.7425 9.375H35.6175V11.375H38.7425V9.375ZM34.6175 10.375V11.9375H36.6175V10.375H34.6175ZM35.6175 10.9375H29.3675V12.9375H35.6175V10.9375ZM30.3675 11.9375V10.375H28.3675V11.9375H30.3675ZM29.3675 9.375H26.2425V11.375H29.3675V9.375ZM27.2425 10.375V5.6875H25.2425V10.375H27.2425ZM26.2425 6.6875H29.3675V4.6875H26.2425V6.6875ZM30.3675 5.6875V4.125H28.3675V5.6875H30.3675ZM29.3675 3.125H26.2425V5.125H29.3675V3.125ZM27.2425 4.125V2.5625H25.2425V4.125H27.2425ZM28.3675 7.25V8.8125H30.3675V7.25H28.3675ZM29.3675 9.8125H30.9301V7.8125H29.3675V9.8125ZM29.9301 8.8125V10.375H31.9301V8.8125H29.9301ZM30.9301 11.375H34.0551V9.375H30.9301V11.375ZM35.0551 10.375V8.8125H33.0551V10.375H35.0551ZM34.0551 9.8125H35.6175V7.8125H34.0551V9.8125ZM36.6175 8.8125V7.25H34.6175V8.8125H36.6175ZM35.6175 6.25H34.0551V8.25H35.6175V6.25ZM35.0551 7.25V5.6875H33.0551V7.25H35.0551ZM34.0551 4.6875H30.9301V6.6875H34.0551V4.6875ZM29.9301 5.6875V7.25H31.9301V5.6875H29.9301ZM30.9301 6.25H29.3675V8.25H30.9301V6.25ZM38.7425 5.125H43.4301V3.125H38.7425V5.125ZM44.4301 4.125V1H42.4301V4.125H44.4301ZM43.4301 2H46.5551V0H43.4301V2ZM45.5551 1V11.9375H47.5551V1H45.5551ZM46.5551 10.9375H43.4301V12.9375H46.5551V10.9375ZM44.4301 11.9375V8.8125H42.4301V11.9375H44.4301ZM43.4301 7.8125H38.7425V9.8125H43.4301V7.8125ZM39.7425 8.8125V7.25H37.7425V8.8125H39.7425ZM38.7425 8.25H43.4301V6.25H38.7425V8.25ZM44.4301 7.25V5.6875H42.4301V7.25H44.4301ZM43.4301 4.6875H38.7425V6.6875H43.4301V4.6875ZM39.7425 5.6875V4.125H37.7425V5.6875H39.7425ZM27.8051 16.0625H30.9301V14.0625H27.8051V16.0625ZM31.9301 15.0625V13.5H29.9301V15.0625H31.9301ZM30.9301 14.5H43.4301V12.5H30.9301V14.5ZM42.4301 13.5V15.0625H44.4301V13.5H42.4301ZM43.4301 16.0625H46.5551V14.0625H43.4301V16.0625ZM45.5551 15.0625V19.75H47.5551V15.0625H45.5551ZM46.5551 18.75H43.4301V20.75H46.5551V18.75ZM42.4301 19.75V21.3125H44.4301V19.75H42.4301ZM43.4301 20.3125H30.9301V22.3125H43.4301V20.3125ZM31.9301 21.3125V19.75H29.9301V21.3125H31.9301ZM30.9301 18.75H27.8051V20.75H30.9301V18.75ZM28.8051 19.75V15.0625H26.8051V19.75H28.8051ZM29.9301 16.625V18.1875H31.9301V16.625H29.9301ZM30.9301 19.1875H32.4925V17.1875H30.9301V19.1875ZM31.4925 18.1875V19.75H33.4925V18.1875H31.4925ZM32.4925 20.75H41.8675V18.75H32.4925V20.75ZM42.8675 19.75V18.1875H40.8675V19.75H42.8675ZM41.8675 19.1875H43.4301V17.1875H41.8675V19.1875ZM44.4301 18.1875V16.625H42.4301V18.1875H44.4301ZM43.4301 15.625H41.8675V17.625H43.4301V15.625ZM42.8675 16.625V15.0625H40.8675V16.625H42.8675ZM41.8675 14.0625H32.4925V16.0625H41.8675V14.0625ZM31.4925 15.0625V16.625H33.4925V15.0625H31.4925ZM32.4925 15.625H30.9301V17.625H32.4925V15.625ZM59.0551 3.5625H69.9925V1.5625H59.0551V3.5625ZM68.9925 2.5625V4.125H70.9925V2.5625H68.9925ZM69.9925 3.125H62.1801V5.125H69.9925V3.125ZM61.1801 4.125V8.8125H63.1801V4.125H61.1801ZM62.1801 9.8125H69.9925V7.8125H62.1801V9.8125ZM68.9925 8.8125V10.375H70.9925V8.8125H68.9925ZM69.9925 9.375H62.1801V11.375H69.9925V9.375ZM61.1801 10.375V18.1875H63.1801V10.375H61.1801ZM62.1801 19.1875H66.8675V17.1875H62.1801V19.1875ZM67.8675 18.1875V16.625H65.8675V18.1875H67.8675ZM66.8675 17.625H69.9925V15.625H66.8675V17.625ZM68.9925 16.625V18.1875H70.9925V16.625H68.9925ZM69.9925 17.1875H68.4301V19.1875H69.9925V17.1875ZM67.4301 18.1875V19.75H69.4301V18.1875H67.4301ZM68.4301 18.75H60.6175V20.75H68.4301V18.75ZM61.6175 19.75V18.1875H59.6175V19.75H61.6175ZM60.6175 17.1875H59.0551V19.1875H60.6175V17.1875ZM60.0551 18.1875V2.5625H58.0551V18.1875H60.0551ZM69.9925 11.375H73.1175V9.375H69.9925V11.375ZM74.1175 10.375V1H72.1175V10.375H74.1175ZM73.1175 2H76.2425V0H73.1175V2ZM75.2425 1V21.3125H77.2425V1H75.2425ZM76.2425 20.3125H73.1175V22.3125H76.2425V20.3125ZM74.1175 21.3125V11.9375H72.1175V21.3125H74.1175ZM73.1175 10.9375H69.9925V12.9375H73.1175V10.9375ZM70.9925 11.9375V10.375H68.9925V11.9375H70.9925ZM77.8051 2H80.9301V0H77.8051V2ZM79.9301 1V21.3125H81.9301V1H79.9301ZM80.9301 20.3125H77.8051V22.3125H80.9301V20.3125ZM78.8051 21.3125V1H76.8051V21.3125H78.8051ZM85.6175 11.375H90.3051V9.375H85.6175V11.375ZM91.3051 10.375V8.8125H89.3051V10.375H91.3051ZM90.3051 9.8125H91.8675V7.8125H90.3051V9.8125ZM92.8675 8.8125V7.25H90.8675V8.8125H92.8675ZM91.8675 8.25H93.4301V6.25H91.8675V8.25ZM94.4301 7.25V2.5625H92.4301V7.25H94.4301ZM93.4301 3.5625H96.5551V1.5625H93.4301V3.5625ZM95.5551 2.5625V7.25H97.5551V2.5625H95.5551ZM96.5551 8.25H98.1175V6.25H96.5551V8.25ZM97.1175 7.25V8.8125H99.1175V7.25H97.1175ZM98.1175 9.8125H99.6803V7.8125H98.1175V9.8125ZM98.6803 8.8125V10.375H100.68V8.8125H98.6803ZM99.6803 11.375H104.367V9.375H99.6803V11.375ZM103.367 10.375V11.9375H105.367V10.375H103.367ZM104.367 10.9375H98.1175V12.9375H104.367V10.9375ZM99.1175 11.9375V10.375H97.1175V11.9375H99.1175ZM98.1175 9.375H96.5551V11.375H98.1175V9.375ZM97.5551 10.375V8.8125H95.5551V10.375H97.5551ZM96.5551 7.8125H93.4301V9.8125H96.5551V7.8125ZM92.4301 8.8125V10.375H94.4301V8.8125H92.4301ZM93.4301 9.375H91.8675V11.375H93.4301V9.375ZM90.8675 10.375V11.9375H92.8675V10.375H90.8675ZM91.8675 10.9375H85.6175V12.9375H91.8675V10.9375ZM86.6175 11.9375V10.375H84.6175V11.9375H86.6175ZM84.0551 19.1875H105.93V17.1875H84.0551V19.1875ZM104.93 18.1875V19.75H106.93V18.1875H104.93ZM105.93 18.75H84.0551V20.75H105.93V18.75ZM85.0551 19.75V18.1875H83.0551V19.75H85.0551ZM110.617 3.5625H129.367V1.5625H110.617V3.5625ZM128.367 2.5625V4.125H130.367V2.5625H128.367ZM129.367 3.125H113.742V5.125H129.367V3.125ZM112.742 4.125V7.25H114.742V4.125H112.742ZM113.742 8.25H127.805V6.25H113.742V8.25ZM126.805 7.25V8.8125H128.805V7.25H126.805ZM127.805 7.8125H113.742V9.8125H127.805V7.8125ZM112.742 8.8125V11.9375H114.742V8.8125H112.742ZM113.742 12.9375H129.367V10.9375H113.742V12.9375ZM128.367 11.9375V13.5H130.367V11.9375H128.367ZM129.367 12.5H112.18V14.5H129.367V12.5ZM113.18 13.5V11.9375H111.18V13.5H113.18ZM112.18 10.9375H110.617V12.9375H112.18V10.9375ZM111.617 11.9375V2.5625H109.617V11.9375H111.617ZM109.055 19.1875H130.93V17.1875H109.055V19.1875ZM129.93 18.1875V19.75H131.93V18.1875H129.93ZM130.93 18.75H109.055V20.75H130.93V18.75ZM110.055 19.75V18.1875H108.055V19.75H110.055Z" fill="black" mask="url(#path-95-outside-1_8_18464)"/>
</svg>
