<svg width="159" height="25" viewBox="0 0 159 25" fill="none" xmlns="http://www.w3.org/2000/svg">
<path fill-rule="evenodd" clip-rule="evenodd" d="M10.9375 3.375V4.9375L12.7646 5.751V4.1885L10.9375 3.375Z" fill="#212224"/>
<path fill-rule="evenodd" clip-rule="evenodd" d="M10.9375 4.9375H12.5L14.3271 5.751H12.7646L10.9375 4.9375Z" fill="#212224"/>
<path fill-rule="evenodd" clip-rule="evenodd" d="M12.5 4.9375V6.5L14.3271 7.3135V5.751L12.5 4.9375Z" fill="#212224"/>
<path fill-rule="evenodd" clip-rule="evenodd" d="M12.5 6.5H14.0625L15.8896 7.3135H14.3271L12.5 6.5Z" fill="#212224"/>
<path fill-rule="evenodd" clip-rule="evenodd" d="M14.0625 6.5V17.4375H12.5V19H10.9375V20.5625H4.6875L6.5146 21.376H12.7646V19.8135H14.3271V18.251H15.8896V7.3135L14.0625 6.5Z" fill="#212224"/>
<path fill-rule="evenodd" clip-rule="evenodd" d="M4.6875 20.5625V19L6.5146 19.8135V21.376L4.6875 20.5625Z" fill="#212224"/>
<path fill-rule="evenodd" clip-rule="evenodd" d="M4.6875 19H3.125L4.9521 19.8135H6.5146L4.6875 19Z" fill="#212224"/>
<path fill-rule="evenodd" clip-rule="evenodd" d="M3.125 19V17.4375L4.9521 18.251V19.8135L3.125 19Z" fill="#212224"/>
<path fill-rule="evenodd" clip-rule="evenodd" d="M3.125 17.4375H1.5625L3.3896 18.251H4.9521L3.125 17.4375Z" fill="#212224"/>
<path fill-rule="evenodd" clip-rule="evenodd" d="M1.5625 17.4375V6.5H3.125V4.9375H4.6875V3.375H10.9375L12.7646 4.1885H6.5146V5.751H4.9521V7.3135H3.3896V18.251L1.5625 17.4375Z" fill="#212224"/>
<path fill-rule="evenodd" clip-rule="evenodd" d="M4.6875 17.4375H6.25L8.0771 18.251H6.5146L4.6875 17.4375Z" fill="#212224"/>
<path fill-rule="evenodd" clip-rule="evenodd" d="M6.25 17.4375V19L8.0771 19.8135V18.251L6.25 17.4375Z" fill="#212224"/>
<path fill-rule="evenodd" clip-rule="evenodd" d="M6.25 19H9.375V17.4375H10.9375V6.5L12.7646 7.3135V18.251H11.2021V19.8135H8.0771L6.25 19Z" fill="#212224"/>
<path fill-rule="evenodd" clip-rule="evenodd" d="M10.9375 6.5H9.375L11.2021 7.3135H12.7646L10.9375 6.5Z" fill="#212224"/>
<path fill-rule="evenodd" clip-rule="evenodd" d="M9.375 6.5V4.9375L11.2021 5.751V7.3135L9.375 6.5Z" fill="#212224"/>
<path fill-rule="evenodd" clip-rule="evenodd" d="M9.375 4.9375H6.25V6.5H4.6875V17.4375L6.5146 18.251V7.3135H8.0771V5.751H11.2021L9.375 4.9375Z" fill="#212224"/>
<path fill-rule="evenodd" clip-rule="evenodd" d="M20.3125 1.8125V11.1875L22.1396 12.001V2.626L20.3125 1.8125Z" fill="#212224"/>
<path fill-rule="evenodd" clip-rule="evenodd" d="M20.3125 11.1875H25L26.8271 12.001H22.1396L20.3125 11.1875Z" fill="#212224"/>
<path fill-rule="evenodd" clip-rule="evenodd" d="M25 11.1875V12.75H20.3125V22.125H17.1875L19.0146 22.9385H22.1396V13.5635H26.8271V12.001L25 11.1875Z" fill="#212224"/>
<path fill-rule="evenodd" clip-rule="evenodd" d="M17.1875 22.125V1.8125H20.3125L22.1396 2.626H19.0146V22.9385L17.1875 22.125Z" fill="#212224"/>
<path fill-rule="evenodd" clip-rule="evenodd" d="M35.9375 3.375V17.4375H34.375V19H32.8125V20.5625H28.125L29.9521 21.376H34.6396V19.8135H36.2021V18.251H37.7646V4.1885L35.9375 3.375Z" fill="#212224"/>
<path fill-rule="evenodd" clip-rule="evenodd" d="M28.125 20.5625V19H31.25V17.4375H32.8125V4.9375L34.6396 5.751V18.251H33.0771V19.8135H29.9521V21.376L28.125 20.5625Z" fill="#212224"/>
<path fill-rule="evenodd" clip-rule="evenodd" d="M32.8125 4.9375H26.5625L28.3896 5.751H34.6396L32.8125 4.9375Z" fill="#212224"/>
<path fill-rule="evenodd" clip-rule="evenodd" d="M26.5625 4.9375V3.375H35.9375L37.7646 4.1885H28.3896V5.751L26.5625 4.9375Z" fill="#212224"/>
<path fill-rule="evenodd" clip-rule="evenodd" d="M46.875 1.8125V22.125H43.75L45.5771 22.9385H48.7021V2.626L46.875 1.8125Z" fill="#212224"/>
<path fill-rule="evenodd" clip-rule="evenodd" d="M43.75 22.125V1.8125H46.875L48.7021 2.626H45.5771V22.9385L43.75 22.125Z" fill="#212224"/>
<path fill-rule="evenodd" clip-rule="evenodd" d="M59.375 3.375V15.875L61.2021 16.6885V4.1885L59.375 3.375Z" fill="#212224"/>
<path fill-rule="evenodd" clip-rule="evenodd" d="M59.375 15.875H60.9375L62.7646 16.6885H61.2021L59.375 15.875Z" fill="#212224"/>
<path fill-rule="evenodd" clip-rule="evenodd" d="M60.9375 15.875V17.4375L62.7646 18.251V16.6885L60.9375 15.875Z" fill="#212224"/>
<path fill-rule="evenodd" clip-rule="evenodd" d="M60.9375 17.4375H62.5L64.3271 18.251H62.7646L60.9375 17.4375Z" fill="#212224"/>
<path fill-rule="evenodd" clip-rule="evenodd" d="M62.5 17.4375V19L64.3271 19.8135V18.251L62.5 17.4375Z" fill="#212224"/>
<path fill-rule="evenodd" clip-rule="evenodd" d="M62.5 19H64.0625L65.8896 19.8135H64.3271L62.5 19Z" fill="#212224"/>
<path fill-rule="evenodd" clip-rule="evenodd" d="M64.0625 19V20.5625H60.9375L62.7646 21.376H65.8896V19.8135L64.0625 19Z" fill="#212224"/>
<path fill-rule="evenodd" clip-rule="evenodd" d="M60.9375 20.5625V19L62.7646 19.8135V21.376L60.9375 20.5625Z" fill="#212224"/>
<path fill-rule="evenodd" clip-rule="evenodd" d="M60.9375 19H59.375L61.2021 19.8135H62.7646L60.9375 19Z" fill="#212224"/>
<path fill-rule="evenodd" clip-rule="evenodd" d="M59.375 19V17.4375L61.2021 18.251V19.8135L59.375 19Z" fill="#212224"/>
<path fill-rule="evenodd" clip-rule="evenodd" d="M59.375 17.4375H56.25V19H54.6875V20.5625H51.5625L53.3896 21.376H56.5146V19.8135H58.0771V18.251H61.2021L59.375 17.4375Z" fill="#212224"/>
<path fill-rule="evenodd" clip-rule="evenodd" d="M51.5625 20.5625V19H53.125V17.4375H54.6875V15.875H56.25V3.375H59.375L61.2021 4.1885H58.0771V16.6885H56.5146V18.251H54.9521V19.8135H53.3896V21.376L51.5625 20.5625Z" fill="#212224"/>
<path fill-rule="evenodd" clip-rule="evenodd" d="M70.3125 1.8125V11.1875L72.1396 12.001V2.626L70.3125 1.8125Z" fill="#212224"/>
<path fill-rule="evenodd" clip-rule="evenodd" d="M70.3125 11.1875H75L76.8271 12.001H72.1396L70.3125 11.1875Z" fill="#212224"/>
<path fill-rule="evenodd" clip-rule="evenodd" d="M75 11.1875V12.75H70.3125V22.125H67.1875L69.0146 22.9385H72.1396V13.5635H76.8271V12.001L75 11.1875Z" fill="#212224"/>
<path fill-rule="evenodd" clip-rule="evenodd" d="M67.1875 22.125V1.8125H70.3125L72.1396 2.626H69.0146V22.9385L67.1875 22.125Z" fill="#212224"/>
<path fill-rule="evenodd" clip-rule="evenodd" d="M89.0625 3.375V4.9375H84.375V15.875L86.2021 16.6885V5.751H90.8896V4.1885L89.0625 3.375Z" fill="#212224"/>
<path fill-rule="evenodd" clip-rule="evenodd" d="M84.375 15.875H85.9375L87.7646 16.6885H86.2021L84.375 15.875Z" fill="#212224"/>
<path fill-rule="evenodd" clip-rule="evenodd" d="M85.9375 15.875V17.4375L87.7646 18.251V16.6885L85.9375 15.875Z" fill="#212224"/>
<path fill-rule="evenodd" clip-rule="evenodd" d="M85.9375 17.4375H87.5L89.3271 18.251H87.7646L85.9375 17.4375Z" fill="#212224"/>
<path fill-rule="evenodd" clip-rule="evenodd" d="M87.5 17.4375V19L89.3271 19.8135V18.251L87.5 17.4375Z" fill="#212224"/>
<path fill-rule="evenodd" clip-rule="evenodd" d="M87.5 19H89.0625L90.8896 19.8135H89.3271L87.5 19Z" fill="#212224"/>
<path fill-rule="evenodd" clip-rule="evenodd" d="M89.0625 19V20.5625H85.9375L87.7646 21.376H90.8896V19.8135L89.0625 19Z" fill="#212224"/>
<path fill-rule="evenodd" clip-rule="evenodd" d="M85.9375 20.5625V19L87.7646 19.8135V21.376L85.9375 20.5625Z" fill="#212224"/>
<path fill-rule="evenodd" clip-rule="evenodd" d="M85.9375 19H84.375L86.2021 19.8135H87.7646L85.9375 19Z" fill="#212224"/>
<path fill-rule="evenodd" clip-rule="evenodd" d="M84.375 19V17.4375L86.2021 18.251V19.8135L84.375 19Z" fill="#212224"/>
<path fill-rule="evenodd" clip-rule="evenodd" d="M84.375 17.4375H81.25V19H79.6875V20.5625H76.5625L78.3896 21.376H81.5146V19.8135H83.0771V18.251H86.2021L84.375 17.4375Z" fill="#212224"/>
<path fill-rule="evenodd" clip-rule="evenodd" d="M76.5625 20.5625V19H78.125V17.4375H79.6875V15.875H81.25V4.9375L83.0771 5.751V16.6885H81.5146V18.251H79.9521V19.8135H78.3896V21.376L76.5625 20.5625Z" fill="#212224"/>
<path fill-rule="evenodd" clip-rule="evenodd" d="M81.25 4.9375H76.5625L78.3896 5.751H83.0771L81.25 4.9375Z" fill="#212224"/>
<path fill-rule="evenodd" clip-rule="evenodd" d="M76.5625 4.9375V3.375H89.0625L90.8896 4.1885H78.3896V5.751L76.5625 4.9375Z" fill="#212224"/>
<path fill-rule="evenodd" clip-rule="evenodd" d="M95.3125 1.8125V11.1875L97.1396 12.001V2.626L95.3125 1.8125Z" fill="#212224"/>
<path fill-rule="evenodd" clip-rule="evenodd" d="M95.3125 11.1875H100L101.827 12.001H97.1396L95.3125 11.1875Z" fill="#212224"/>
<path fill-rule="evenodd" clip-rule="evenodd" d="M100 11.1875V12.75H95.3125V22.125H92.1875L94.0146 22.9385H97.1396V13.5635H101.827V12.001L100 11.1875Z" fill="#212224"/>
<path fill-rule="evenodd" clip-rule="evenodd" d="M92.1875 22.125V1.8125H95.3125L97.1396 2.626H94.0146V22.9385L92.1875 22.125Z" fill="#212224"/>
<mask id="path-61-outside-1_22_515" maskUnits="userSpaceOnUse" x="0.5625" y="0.8125" width="101" height="23" fill="black">
<rect fill="white" x="0.5625" y="0.8125" width="101" height="23"/>
<path d="M1.5625 6.5H3.125V4.9375H4.6875V3.375H10.9375V4.9375H12.5V6.5H14.0625V17.4375H12.5V19H10.9375V20.5625H4.6875V19H3.125V17.4375H1.5625V6.5ZM4.6875 6.5V17.4375H6.25V19H9.375V17.4375H10.9375V6.5H9.375V4.9375H6.25V6.5H4.6875ZM17.1875 1.8125H20.3125V11.1875H25V12.75H20.3125V22.125H17.1875V1.8125ZM26.5625 3.375H35.9375V17.4375H34.375V19H32.8125V20.5625H28.125V19H31.25V17.4375H32.8125V4.9375H26.5625V3.375ZM43.75 1.8125H46.875V22.125H43.75V1.8125ZM51.5625 19H53.125V17.4375H54.6875V15.875H56.25V3.375H59.375V15.875H60.9375V17.4375H62.5V19H64.0625V20.5625H60.9375V19H59.375V17.4375H56.25V19H54.6875V20.5625H51.5625V19ZM67.1875 1.8125H70.3125V11.1875H75V12.75H70.3125V22.125H67.1875V1.8125ZM76.5625 3.375H89.0625V4.9375H84.375V15.875H85.9375V17.4375H87.5V19H89.0625V20.5625H85.9375V19H84.375V17.4375H81.25V19H79.6875V20.5625H76.5625V19H78.125V17.4375H79.6875V15.875H81.25V4.9375H76.5625V3.375ZM92.1875 1.8125H95.3125V11.1875H100V12.75H95.3125V22.125H92.1875V1.8125Z"/>
</mask>
<path d="M1.5625 6.5H3.125V4.9375H4.6875V3.375H10.9375V4.9375H12.5V6.5H14.0625V17.4375H12.5V19H10.9375V20.5625H4.6875V19H3.125V17.4375H1.5625V6.5ZM4.6875 6.5V17.4375H6.25V19H9.375V17.4375H10.9375V6.5H9.375V4.9375H6.25V6.5H4.6875ZM17.1875 1.8125H20.3125V11.1875H25V12.75H20.3125V22.125H17.1875V1.8125ZM26.5625 3.375H35.9375V17.4375H34.375V19H32.8125V20.5625H28.125V19H31.25V17.4375H32.8125V4.9375H26.5625V3.375ZM43.75 1.8125H46.875V22.125H43.75V1.8125ZM51.5625 19H53.125V17.4375H54.6875V15.875H56.25V3.375H59.375V15.875H60.9375V17.4375H62.5V19H64.0625V20.5625H60.9375V19H59.375V17.4375H56.25V19H54.6875V20.5625H51.5625V19ZM67.1875 1.8125H70.3125V11.1875H75V12.75H70.3125V22.125H67.1875V1.8125ZM76.5625 3.375H89.0625V4.9375H84.375V15.875H85.9375V17.4375H87.5V19H89.0625V20.5625H85.9375V19H84.375V17.4375H81.25V19H79.6875V20.5625H76.5625V19H78.125V17.4375H79.6875V15.875H81.25V4.9375H76.5625V3.375ZM92.1875 1.8125H95.3125V11.1875H100V12.75H95.3125V22.125H92.1875V1.8125Z" fill="#01A0D2"/>
<path d="M1.5625 6.5H3.125V4.9375H4.6875V3.375H10.9375V4.9375H12.5V6.5H14.0625V17.4375H12.5V19H10.9375V20.5625H4.6875V19H3.125V17.4375H1.5625V6.5ZM4.6875 6.5V17.4375H6.25V19H9.375V17.4375H10.9375V6.5H9.375V4.9375H6.25V6.5H4.6875ZM17.1875 1.8125H20.3125V11.1875H25V12.75H20.3125V22.125H17.1875V1.8125ZM26.5625 3.375H35.9375V17.4375H34.375V19H32.8125V20.5625H28.125V19H31.25V17.4375H32.8125V4.9375H26.5625V3.375ZM43.75 1.8125H46.875V22.125H43.75V1.8125ZM51.5625 19H53.125V17.4375H54.6875V15.875H56.25V3.375H59.375V15.875H60.9375V17.4375H62.5V19H64.0625V20.5625H60.9375V19H59.375V17.4375H56.25V19H54.6875V20.5625H51.5625V19ZM67.1875 1.8125H70.3125V11.1875H75V12.75H70.3125V22.125H67.1875V1.8125ZM76.5625 3.375H89.0625V4.9375H84.375V15.875H85.9375V17.4375H87.5V19H89.0625V20.5625H85.9375V19H84.375V17.4375H81.25V19H79.6875V20.5625H76.5625V19H78.125V17.4375H79.6875V15.875H81.25V4.9375H76.5625V3.375ZM92.1875 1.8125H95.3125V11.1875H100V12.75H95.3125V22.125H92.1875V1.8125Z" stroke="#212224" stroke-width="2" mask="url(#path-61-outside-1_22_515)"/>
<path fill-rule="evenodd" clip-rule="evenodd" d="M129.875 3.375V4.9375H114.25V8.0625L116.077 8.876V5.751H131.702V4.1885L129.875 3.375Z" fill="#212224"/>
<path fill-rule="evenodd" clip-rule="evenodd" d="M114.25 8.0625H128.312L130.14 8.876H116.077L114.25 8.0625Z" fill="#212224"/>
<path fill-rule="evenodd" clip-rule="evenodd" d="M128.312 8.0625V9.625H114.25V12.75L116.077 13.5635V10.4385H130.14V8.876L128.312 8.0625Z" fill="#212224"/>
<path fill-rule="evenodd" clip-rule="evenodd" d="M114.25 12.75H129.875L131.702 13.5635H116.077L114.25 12.75Z" fill="#212224"/>
<path fill-rule="evenodd" clip-rule="evenodd" d="M129.875 12.75V14.3125H112.688L114.515 15.126H131.702V13.5635L129.875 12.75Z" fill="#212224"/>
<path fill-rule="evenodd" clip-rule="evenodd" d="M112.688 14.3125V12.75L114.515 13.5635V15.126L112.688 14.3125Z" fill="#212224"/>
<path fill-rule="evenodd" clip-rule="evenodd" d="M112.688 12.75H111.125L112.952 13.5635H114.515L112.688 12.75Z" fill="#212224"/>
<path fill-rule="evenodd" clip-rule="evenodd" d="M111.125 12.75V3.375H129.875L131.702 4.1885H112.952V13.5635L111.125 12.75Z" fill="#212224"/>
<path fill-rule="evenodd" clip-rule="evenodd" d="M131.438 19V20.5625H109.562L111.39 21.376H133.265V19.8135L131.438 19Z" fill="#212224"/>
<path fill-rule="evenodd" clip-rule="evenodd" d="M109.562 20.5625V19H131.438L133.265 19.8135H111.39V21.376L109.562 20.5625Z" fill="#212224"/>
<path fill-rule="evenodd" clip-rule="evenodd" d="M147.062 1.8125V8.0625H137.688V11.1875L139.515 12.001V8.876H148.89V2.626L147.062 1.8125Z" fill="#212224"/>
<path fill-rule="evenodd" clip-rule="evenodd" d="M137.688 11.1875H147.062L148.89 12.001H139.515L137.688 11.1875Z" fill="#212224"/>
<path fill-rule="evenodd" clip-rule="evenodd" d="M147.062 11.1875V12.75H136.125L137.952 13.5635H148.89V12.001L147.062 11.1875Z" fill="#212224"/>
<path fill-rule="evenodd" clip-rule="evenodd" d="M136.125 12.75V11.1875L137.952 12.001V13.5635L136.125 12.75Z" fill="#212224"/>
<path fill-rule="evenodd" clip-rule="evenodd" d="M136.125 11.1875H134.562L136.39 12.001H137.952L136.125 11.1875Z" fill="#212224"/>
<path fill-rule="evenodd" clip-rule="evenodd" d="M134.562 11.1875V6.5H143.938V3.375L145.765 4.1885V7.3135H136.39V12.001L134.562 11.1875Z" fill="#212224"/>
<path fill-rule="evenodd" clip-rule="evenodd" d="M143.938 3.375H134.562L136.39 4.1885H145.765L143.938 3.375Z" fill="#212224"/>
<path fill-rule="evenodd" clip-rule="evenodd" d="M134.562 3.375V1.8125H147.062L148.89 2.626H136.39V4.1885L134.562 3.375Z" fill="#212224"/>
<path fill-rule="evenodd" clip-rule="evenodd" d="M151.75 1.8125V6.5L153.577 7.3135V2.626L151.75 1.8125Z" fill="#212224"/>
<path fill-rule="evenodd" clip-rule="evenodd" d="M151.75 6.5H153.312V1.8125H156.438L158.265 2.626H155.14V7.3135H153.577L151.75 6.5Z" fill="#212224"/>
<path fill-rule="evenodd" clip-rule="evenodd" d="M156.438 1.8125V12.75H153.312L155.14 13.5635H158.265V2.626L156.438 1.8125Z" fill="#212224"/>
<path fill-rule="evenodd" clip-rule="evenodd" d="M153.312 12.75V8.0625L155.14 8.876V13.5635L153.312 12.75Z" fill="#212224"/>
<path fill-rule="evenodd" clip-rule="evenodd" d="M153.312 8.0625H151.75V12.75H148.625L150.452 13.5635H153.577V8.876H155.14L153.312 8.0625Z" fill="#212224"/>
<path fill-rule="evenodd" clip-rule="evenodd" d="M148.625 12.75V1.8125H151.75L153.577 2.626H150.452V13.5635L148.625 12.75Z" fill="#212224"/>
<path fill-rule="evenodd" clip-rule="evenodd" d="M156.438 14.3125V20.5625H154.875V22.125H153.312L155.14 22.9385H156.702V21.376H158.265V15.126L156.438 14.3125Z" fill="#212224"/>
<path fill-rule="evenodd" clip-rule="evenodd" d="M153.312 22.125V15.875L155.14 16.6885V22.9385L153.312 22.125Z" fill="#212224"/>
<path fill-rule="evenodd" clip-rule="evenodd" d="M153.312 15.875H136.125L137.952 16.6885H155.14L153.312 15.875Z" fill="#212224"/>
<path fill-rule="evenodd" clip-rule="evenodd" d="M136.125 15.875V14.3125H156.438L158.265 15.126H137.952V16.6885L136.125 15.875Z" fill="#212224"/>
<path d="M111.125 2.875H110.625V3.375V12.75V13.25H111.125H112.188V14.3125V14.8125H112.688H129.875H130.375V14.3125V12.75V12.25H129.875H114.75V10.125H128.312H128.812V9.625V8.0625V7.5625H128.312H114.75V5.4375H129.875H130.375V4.9375V3.375V2.875H129.875H111.125ZM109.562 18.5H109.062V19V20.5625V21.0625H109.562H131.438H131.938V20.5625V19V18.5H131.438H109.562ZM134.562 1.3125H134.062V1.8125V3.375V3.875H134.562H143.438V6H134.562H134.062V6.5V11.1875V11.6875H134.562H135.625V12.75V13.25H136.125H147.062H147.562V12.75V11.1875V10.6875H147.062H138.188V8.5625H147.062H147.562V8.0625V1.8125V1.3125H147.062H134.562ZM148.625 1.3125H148.125V1.8125V12.75V13.25H148.625H151.75H152.25V12.75V8.5625H152.812V12.75V13.25H153.312H156.438H156.938V12.75V1.8125V1.3125H156.438H153.312H152.812V1.8125V6H152.25V1.8125V1.3125H151.75H148.625ZM136.125 13.8125H135.625V14.3125V15.875V16.375H136.125H152.812V22.125V22.625H153.312H154.875H155.375V22.125V21.0625H156.438H156.938V20.5625V14.3125V13.8125H156.438H136.125Z" fill="#FF7711" stroke="#212224"/>
</svg>
